<?xml version="1.0" standalone="no"?>
<!DOCTYPE svg PUBLIC "-//W3C//DTD SVG 1.1//EN" "http://www.w3.org/Graphics/SVG/1.1/DTD/svg11.dtd" >
<svg xmlns="http://www.w3.org/2000/svg" xmlns:xlink="http://www.w3.org/1999/xlink" version="1.1">
<metadata>
Created by FontForge 20230101 at Thu Apr  2 00:21:36 2020
 By Unknown
Copyright  2020 by Cahya Sofyan. All rights reserved.
</metadata>
<defs>
<font id="FONTSPRINGDEMO-BalginTextLightRegular" horiz-adv-x="598" >
  <font-face 
    font-family="FSP DEMO - Balgin Text Light"
    font-weight="300"
    font-stretch="normal"
    units-per-em="1000"
    panose-1="0 0 4 0 0 0 0 0 0 0"
    ascent="750"
    descent="-250"
    x-height="534"
    cap-height="700"
    bbox="-98 -236 997 794"
    underline-thickness="50"
    underline-position="-100"
    unicode-range="U+0020-007E"
  />
<missing-glyph 
d="M101 197q-6 0 -9 -1v-98q2 -1 9 -1q18 0 24.5 12t6.5 38t-6.5 38t-24.5 12zM253 161v-24h-40v-38h47v-24h-76v145h76v-25h-47v-34h40zM99 73q-23 0 -36 2v143q26 4 37 4q33 0 47 -18t14 -57t-14.5 -56.5t-47.5 -17.5zM286 220h39l19 -80l19 80h40q1 -21 3.5 -78.5
t2.5 -66.5h-29q0 53 -3 104l-20 -82h-27l-20 82h-1q-2 -68 -2 -104h-28q2 84 7 145zM482 73q-29 0 -41 17.5t-12 56.5t12 57t41 18t41.5 -18t12.5 -57t-12.5 -56.5t-41.5 -17.5zM482 197q-14 0 -19 -11.5t-5 -38.5q0 -50 24 -50q15 0 20 12t5 38q0 27 -5 38.5t-20 11.5z
M472 496q34 0 48 -20t14 -43q0 -21 -16.5 -35t-35.5 -17q-104 -12 -166 -72q3 8 8.5 20.5t22.5 44.5t34.5 57t42.5 45t48 20zM139 444q26 0 52 -19.5t44 -47t32 -54.5t21 -47l7 -19q-57 72 -156 72q-24 0 -43 15t-19 37q0 26 16.5 44.5t45.5 18.5zM314 593q19 -18 24 -50
t-1.5 -64t-15.5 -62t-17 -49l-9 -18q10 93 -61 161q-17 17 -20.5 40t11.5 41q18 18 41.5 19.5t47.5 -18.5z" />
    <glyph glyph-name=".notdef" 
d="M101 197q-6 0 -9 -1v-98q2 -1 9 -1q18 0 24.5 12t6.5 38t-6.5 38t-24.5 12zM253 161v-24h-40v-38h47v-24h-76v145h76v-25h-47v-34h40zM99 73q-23 0 -36 2v143q26 4 37 4q33 0 47 -18t14 -57t-14.5 -56.5t-47.5 -17.5zM286 220h39l19 -80l19 80h40q1 -21 3.5 -78.5
t2.5 -66.5h-29q0 53 -3 104l-20 -82h-27l-20 82h-1q-2 -68 -2 -104h-28q2 84 7 145zM482 73q-29 0 -41 17.5t-12 56.5t12 57t41 18t41.5 -18t12.5 -57t-12.5 -56.5t-41.5 -17.5zM482 197q-14 0 -19 -11.5t-5 -38.5q0 -50 24 -50q15 0 20 12t5 38q0 27 -5 38.5t-20 11.5z
M472 496q34 0 48 -20t14 -43q0 -21 -16.5 -35t-35.5 -17q-104 -12 -166 -72q3 8 8.5 20.5t22.5 44.5t34.5 57t42.5 45t48 20zM139 444q26 0 52 -19.5t44 -47t32 -54.5t21 -47l7 -19q-57 72 -156 72q-24 0 -43 15t-19 37q0 26 16.5 44.5t45.5 18.5zM314 593q19 -18 24 -50
t-1.5 -64t-15.5 -62t-17 -49l-9 -18q10 93 -61 161q-17 17 -20.5 40t11.5 41q18 18 41.5 19.5t47.5 -18.5z" />
    <glyph glyph-name=".null" horiz-adv-x="0" 
 />
    <glyph glyph-name="nonmarkingreturn" horiz-adv-x="333" 
 />
    <glyph glyph-name="space" unicode=" " horiz-adv-x="262" 
 />
    <glyph glyph-name="exclam" unicode="!" 
d="M101 197q-6 0 -9 -1v-98q2 -1 9 -1q18 0 24.5 12t6.5 38t-6.5 38t-24.5 12zM253 161v-24h-40v-38h47v-24h-76v145h76v-25h-47v-34h40zM99 73q-23 0 -36 2v143q26 4 37 4q33 0 47 -18t14 -57t-14.5 -56.5t-47.5 -17.5zM286 220h39l19 -80l19 80h40q1 -21 3.5 -78.5
t2.5 -66.5h-29q0 53 -3 104l-20 -82h-27l-20 82h-1q-2 -68 -2 -104h-28q2 84 7 145zM482 73q-29 0 -41 17.5t-12 56.5t12 57t41 18t41.5 -18t12.5 -57t-12.5 -56.5t-41.5 -17.5zM482 197q-14 0 -19 -11.5t-5 -38.5q0 -50 24 -50q15 0 20 12t5 38q0 27 -5 38.5t-20 11.5z
M472 496q34 0 48 -20t14 -43q0 -21 -16.5 -35t-35.5 -17q-104 -12 -166 -72q3 8 8.5 20.5t22.5 44.5t34.5 57t42.5 45t48 20zM139 444q26 0 52 -19.5t44 -47t32 -54.5t21 -47l7 -19q-57 72 -156 72q-24 0 -43 15t-19 37q0 26 16.5 44.5t45.5 18.5zM314 593q19 -18 24 -50
t-1.5 -64t-15.5 -62t-17 -49l-9 -18q10 93 -61 161q-17 17 -20.5 40t11.5 41q18 18 41.5 19.5t47.5 -18.5z" />
    <glyph glyph-name="quotedbl" unicode="&#x22;" 
d="M101 197q-6 0 -9 -1v-98q2 -1 9 -1q18 0 24.5 12t6.5 38t-6.5 38t-24.5 12zM253 161v-24h-40v-38h47v-24h-76v145h76v-25h-47v-34h40zM99 73q-23 0 -36 2v143q26 4 37 4q33 0 47 -18t14 -57t-14.5 -56.5t-47.5 -17.5zM286 220h39l19 -80l19 80h40q1 -21 3.5 -78.5
t2.5 -66.5h-29q0 53 -3 104l-20 -82h-27l-20 82h-1q-2 -68 -2 -104h-28q2 84 7 145zM482 73q-29 0 -41 17.5t-12 56.5t12 57t41 18t41.5 -18t12.5 -57t-12.5 -56.5t-41.5 -17.5zM482 197q-14 0 -19 -11.5t-5 -38.5q0 -50 24 -50q15 0 20 12t5 38q0 27 -5 38.5t-20 11.5z
M472 496q34 0 48 -20t14 -43q0 -21 -16.5 -35t-35.5 -17q-104 -12 -166 -72q3 8 8.5 20.5t22.5 44.5t34.5 57t42.5 45t48 20zM139 444q26 0 52 -19.5t44 -47t32 -54.5t21 -47l7 -19q-57 72 -156 72q-24 0 -43 15t-19 37q0 26 16.5 44.5t45.5 18.5zM314 593q19 -18 24 -50
t-1.5 -64t-15.5 -62t-17 -49l-9 -18q10 93 -61 161q-17 17 -20.5 40t11.5 41q18 18 41.5 19.5t47.5 -18.5z" />
    <glyph glyph-name="numbersign" unicode="#" 
d="M101 197q-6 0 -9 -1v-98q2 -1 9 -1q18 0 24.5 12t6.5 38t-6.5 38t-24.5 12zM253 161v-24h-40v-38h47v-24h-76v145h76v-25h-47v-34h40zM99 73q-23 0 -36 2v143q26 4 37 4q33 0 47 -18t14 -57t-14.5 -56.5t-47.5 -17.5zM286 220h39l19 -80l19 80h40q1 -21 3.5 -78.5
t2.5 -66.5h-29q0 53 -3 104l-20 -82h-27l-20 82h-1q-2 -68 -2 -104h-28q2 84 7 145zM482 73q-29 0 -41 17.5t-12 56.5t12 57t41 18t41.5 -18t12.5 -57t-12.5 -56.5t-41.5 -17.5zM482 197q-14 0 -19 -11.5t-5 -38.5q0 -50 24 -50q15 0 20 12t5 38q0 27 -5 38.5t-20 11.5z
M472 496q34 0 48 -20t14 -43q0 -21 -16.5 -35t-35.5 -17q-104 -12 -166 -72q3 8 8.5 20.5t22.5 44.5t34.5 57t42.5 45t48 20zM139 444q26 0 52 -19.5t44 -47t32 -54.5t21 -47l7 -19q-57 72 -156 72q-24 0 -43 15t-19 37q0 26 16.5 44.5t45.5 18.5zM314 593q19 -18 24 -50
t-1.5 -64t-15.5 -62t-17 -49l-9 -18q10 93 -61 161q-17 17 -20.5 40t11.5 41q18 18 41.5 19.5t47.5 -18.5z" />
    <glyph glyph-name="dollar" unicode="$" 
d="M101 197q-6 0 -9 -1v-98q2 -1 9 -1q18 0 24.5 12t6.5 38t-6.5 38t-24.5 12zM253 161v-24h-40v-38h47v-24h-76v145h76v-25h-47v-34h40zM99 73q-23 0 -36 2v143q26 4 37 4q33 0 47 -18t14 -57t-14.5 -56.5t-47.5 -17.5zM286 220h39l19 -80l19 80h40q1 -21 3.5 -78.5
t2.5 -66.5h-29q0 53 -3 104l-20 -82h-27l-20 82h-1q-2 -68 -2 -104h-28q2 84 7 145zM482 73q-29 0 -41 17.5t-12 56.5t12 57t41 18t41.5 -18t12.5 -57t-12.5 -56.5t-41.5 -17.5zM482 197q-14 0 -19 -11.5t-5 -38.5q0 -50 24 -50q15 0 20 12t5 38q0 27 -5 38.5t-20 11.5z
M472 496q34 0 48 -20t14 -43q0 -21 -16.5 -35t-35.5 -17q-104 -12 -166 -72q3 8 8.5 20.5t22.5 44.5t34.5 57t42.5 45t48 20zM139 444q26 0 52 -19.5t44 -47t32 -54.5t21 -47l7 -19q-57 72 -156 72q-24 0 -43 15t-19 37q0 26 16.5 44.5t45.5 18.5zM314 593q19 -18 24 -50
t-1.5 -64t-15.5 -62t-17 -49l-9 -18q10 93 -61 161q-17 17 -20.5 40t11.5 41q18 18 41.5 19.5t47.5 -18.5z" />
    <glyph glyph-name="percent" unicode="%" 
d="M101 197q-6 0 -9 -1v-98q2 -1 9 -1q18 0 24.5 12t6.5 38t-6.5 38t-24.5 12zM253 161v-24h-40v-38h47v-24h-76v145h76v-25h-47v-34h40zM99 73q-23 0 -36 2v143q26 4 37 4q33 0 47 -18t14 -57t-14.5 -56.5t-47.5 -17.5zM286 220h39l19 -80l19 80h40q1 -21 3.5 -78.5
t2.5 -66.5h-29q0 53 -3 104l-20 -82h-27l-20 82h-1q-2 -68 -2 -104h-28q2 84 7 145zM482 73q-29 0 -41 17.5t-12 56.5t12 57t41 18t41.5 -18t12.5 -57t-12.5 -56.5t-41.5 -17.5zM482 197q-14 0 -19 -11.5t-5 -38.5q0 -50 24 -50q15 0 20 12t5 38q0 27 -5 38.5t-20 11.5z
M472 496q34 0 48 -20t14 -43q0 -21 -16.5 -35t-35.5 -17q-104 -12 -166 -72q3 8 8.5 20.5t22.5 44.5t34.5 57t42.5 45t48 20zM139 444q26 0 52 -19.5t44 -47t32 -54.5t21 -47l7 -19q-57 72 -156 72q-24 0 -43 15t-19 37q0 26 16.5 44.5t45.5 18.5zM314 593q19 -18 24 -50
t-1.5 -64t-15.5 -62t-17 -49l-9 -18q10 93 -61 161q-17 17 -20.5 40t11.5 41q18 18 41.5 19.5t47.5 -18.5z" />
    <glyph glyph-name="ampersand" unicode="&#x26;" 
d="M101 197q-6 0 -9 -1v-98q2 -1 9 -1q18 0 24.5 12t6.5 38t-6.5 38t-24.5 12zM253 161v-24h-40v-38h47v-24h-76v145h76v-25h-47v-34h40zM99 73q-23 0 -36 2v143q26 4 37 4q33 0 47 -18t14 -57t-14.5 -56.5t-47.5 -17.5zM286 220h39l19 -80l19 80h40q1 -21 3.5 -78.5
t2.5 -66.5h-29q0 53 -3 104l-20 -82h-27l-20 82h-1q-2 -68 -2 -104h-28q2 84 7 145zM482 73q-29 0 -41 17.5t-12 56.5t12 57t41 18t41.5 -18t12.5 -57t-12.5 -56.5t-41.5 -17.5zM482 197q-14 0 -19 -11.5t-5 -38.5q0 -50 24 -50q15 0 20 12t5 38q0 27 -5 38.5t-20 11.5z
M472 496q34 0 48 -20t14 -43q0 -21 -16.5 -35t-35.5 -17q-104 -12 -166 -72q3 8 8.5 20.5t22.5 44.5t34.5 57t42.5 45t48 20zM139 444q26 0 52 -19.5t44 -47t32 -54.5t21 -47l7 -19q-57 72 -156 72q-24 0 -43 15t-19 37q0 26 16.5 44.5t45.5 18.5zM314 593q19 -18 24 -50
t-1.5 -64t-15.5 -62t-17 -49l-9 -18q10 93 -61 161q-17 17 -20.5 40t11.5 41q18 18 41.5 19.5t47.5 -18.5z" />
    <glyph glyph-name="quotesingle" unicode="'" 
d="M101 197q-6 0 -9 -1v-98q2 -1 9 -1q18 0 24.5 12t6.5 38t-6.5 38t-24.5 12zM253 161v-24h-40v-38h47v-24h-76v145h76v-25h-47v-34h40zM99 73q-23 0 -36 2v143q26 4 37 4q33 0 47 -18t14 -57t-14.5 -56.5t-47.5 -17.5zM286 220h39l19 -80l19 80h40q1 -21 3.5 -78.5
t2.5 -66.5h-29q0 53 -3 104l-20 -82h-27l-20 82h-1q-2 -68 -2 -104h-28q2 84 7 145zM482 73q-29 0 -41 17.5t-12 56.5t12 57t41 18t41.5 -18t12.5 -57t-12.5 -56.5t-41.5 -17.5zM482 197q-14 0 -19 -11.5t-5 -38.5q0 -50 24 -50q15 0 20 12t5 38q0 27 -5 38.5t-20 11.5z
M472 496q34 0 48 -20t14 -43q0 -21 -16.5 -35t-35.5 -17q-104 -12 -166 -72q3 8 8.5 20.5t22.5 44.5t34.5 57t42.5 45t48 20zM139 444q26 0 52 -19.5t44 -47t32 -54.5t21 -47l7 -19q-57 72 -156 72q-24 0 -43 15t-19 37q0 26 16.5 44.5t45.5 18.5zM314 593q19 -18 24 -50
t-1.5 -64t-15.5 -62t-17 -49l-9 -18q10 93 -61 161q-17 17 -20.5 40t11.5 41q18 18 41.5 19.5t47.5 -18.5z" />
    <glyph glyph-name="parenleft" unicode="(" 
d="M101 197q-6 0 -9 -1v-98q2 -1 9 -1q18 0 24.5 12t6.5 38t-6.5 38t-24.5 12zM253 161v-24h-40v-38h47v-24h-76v145h76v-25h-47v-34h40zM99 73q-23 0 -36 2v143q26 4 37 4q33 0 47 -18t14 -57t-14.5 -56.5t-47.5 -17.5zM286 220h39l19 -80l19 80h40q1 -21 3.5 -78.5
t2.5 -66.5h-29q0 53 -3 104l-20 -82h-27l-20 82h-1q-2 -68 -2 -104h-28q2 84 7 145zM482 73q-29 0 -41 17.5t-12 56.5t12 57t41 18t41.5 -18t12.5 -57t-12.5 -56.5t-41.5 -17.5zM482 197q-14 0 -19 -11.5t-5 -38.5q0 -50 24 -50q15 0 20 12t5 38q0 27 -5 38.5t-20 11.5z
M472 496q34 0 48 -20t14 -43q0 -21 -16.5 -35t-35.5 -17q-104 -12 -166 -72q3 8 8.5 20.5t22.5 44.5t34.5 57t42.5 45t48 20zM139 444q26 0 52 -19.5t44 -47t32 -54.5t21 -47l7 -19q-57 72 -156 72q-24 0 -43 15t-19 37q0 26 16.5 44.5t45.5 18.5zM314 593q19 -18 24 -50
t-1.5 -64t-15.5 -62t-17 -49l-9 -18q10 93 -61 161q-17 17 -20.5 40t11.5 41q18 18 41.5 19.5t47.5 -18.5z" />
    <glyph glyph-name="parenright" unicode=")" 
d="M101 197q-6 0 -9 -1v-98q2 -1 9 -1q18 0 24.5 12t6.5 38t-6.5 38t-24.5 12zM253 161v-24h-40v-38h47v-24h-76v145h76v-25h-47v-34h40zM99 73q-23 0 -36 2v143q26 4 37 4q33 0 47 -18t14 -57t-14.5 -56.5t-47.5 -17.5zM286 220h39l19 -80l19 80h40q1 -21 3.5 -78.5
t2.5 -66.5h-29q0 53 -3 104l-20 -82h-27l-20 82h-1q-2 -68 -2 -104h-28q2 84 7 145zM482 73q-29 0 -41 17.5t-12 56.5t12 57t41 18t41.5 -18t12.5 -57t-12.5 -56.5t-41.5 -17.5zM482 197q-14 0 -19 -11.5t-5 -38.5q0 -50 24 -50q15 0 20 12t5 38q0 27 -5 38.5t-20 11.5z
M472 496q34 0 48 -20t14 -43q0 -21 -16.5 -35t-35.5 -17q-104 -12 -166 -72q3 8 8.5 20.5t22.5 44.5t34.5 57t42.5 45t48 20zM139 444q26 0 52 -19.5t44 -47t32 -54.5t21 -47l7 -19q-57 72 -156 72q-24 0 -43 15t-19 37q0 26 16.5 44.5t45.5 18.5zM314 593q19 -18 24 -50
t-1.5 -64t-15.5 -62t-17 -49l-9 -18q10 93 -61 161q-17 17 -20.5 40t11.5 41q18 18 41.5 19.5t47.5 -18.5z" />
    <glyph glyph-name="asterisk" unicode="*" 
d="M101 197q-6 0 -9 -1v-98q2 -1 9 -1q18 0 24.5 12t6.5 38t-6.5 38t-24.5 12zM253 161v-24h-40v-38h47v-24h-76v145h76v-25h-47v-34h40zM99 73q-23 0 -36 2v143q26 4 37 4q33 0 47 -18t14 -57t-14.5 -56.5t-47.5 -17.5zM286 220h39l19 -80l19 80h40q1 -21 3.5 -78.5
t2.5 -66.5h-29q0 53 -3 104l-20 -82h-27l-20 82h-1q-2 -68 -2 -104h-28q2 84 7 145zM482 73q-29 0 -41 17.5t-12 56.5t12 57t41 18t41.5 -18t12.5 -57t-12.5 -56.5t-41.5 -17.5zM482 197q-14 0 -19 -11.5t-5 -38.5q0 -50 24 -50q15 0 20 12t5 38q0 27 -5 38.5t-20 11.5z
M472 496q34 0 48 -20t14 -43q0 -21 -16.5 -35t-35.5 -17q-104 -12 -166 -72q3 8 8.5 20.5t22.5 44.5t34.5 57t42.5 45t48 20zM139 444q26 0 52 -19.5t44 -47t32 -54.5t21 -47l7 -19q-57 72 -156 72q-24 0 -43 15t-19 37q0 26 16.5 44.5t45.5 18.5zM314 593q19 -18 24 -50
t-1.5 -64t-15.5 -62t-17 -49l-9 -18q10 93 -61 161q-17 17 -20.5 40t11.5 41q18 18 41.5 19.5t47.5 -18.5z" />
    <glyph glyph-name="plus" unicode="+" 
d="M101 197q-6 0 -9 -1v-98q2 -1 9 -1q18 0 24.5 12t6.5 38t-6.5 38t-24.5 12zM253 161v-24h-40v-38h47v-24h-76v145h76v-25h-47v-34h40zM99 73q-23 0 -36 2v143q26 4 37 4q33 0 47 -18t14 -57t-14.5 -56.5t-47.5 -17.5zM286 220h39l19 -80l19 80h40q1 -21 3.5 -78.5
t2.5 -66.5h-29q0 53 -3 104l-20 -82h-27l-20 82h-1q-2 -68 -2 -104h-28q2 84 7 145zM482 73q-29 0 -41 17.5t-12 56.5t12 57t41 18t41.5 -18t12.5 -57t-12.5 -56.5t-41.5 -17.5zM482 197q-14 0 -19 -11.5t-5 -38.5q0 -50 24 -50q15 0 20 12t5 38q0 27 -5 38.5t-20 11.5z
M472 496q34 0 48 -20t14 -43q0 -21 -16.5 -35t-35.5 -17q-104 -12 -166 -72q3 8 8.5 20.5t22.5 44.5t34.5 57t42.5 45t48 20zM139 444q26 0 52 -19.5t44 -47t32 -54.5t21 -47l7 -19q-57 72 -156 72q-24 0 -43 15t-19 37q0 26 16.5 44.5t45.5 18.5zM314 593q19 -18 24 -50
t-1.5 -64t-15.5 -62t-17 -49l-9 -18q10 93 -61 161q-17 17 -20.5 40t11.5 41q18 18 41.5 19.5t47.5 -18.5z" />
    <glyph glyph-name="comma" unicode="," horiz-adv-x="207" 
d="M82 -122l-37 6l40 113q-37 12 -37 51q0 23 17 39t39 16t38.5 -16t16.5 -40q0 -15 -11 -39z" />
    <glyph glyph-name="hyphen" unicode="-" 
d="M101 197q-6 0 -9 -1v-98q2 -1 9 -1q18 0 24.5 12t6.5 38t-6.5 38t-24.5 12zM253 161v-24h-40v-38h47v-24h-76v145h76v-25h-47v-34h40zM99 73q-23 0 -36 2v143q26 4 37 4q33 0 47 -18t14 -57t-14.5 -56.5t-47.5 -17.5zM286 220h39l19 -80l19 80h40q1 -21 3.5 -78.5
t2.5 -66.5h-29q0 53 -3 104l-20 -82h-27l-20 82h-1q-2 -68 -2 -104h-28q2 84 7 145zM482 73q-29 0 -41 17.5t-12 56.5t12 57t41 18t41.5 -18t12.5 -57t-12.5 -56.5t-41.5 -17.5zM482 197q-14 0 -19 -11.5t-5 -38.5q0 -50 24 -50q15 0 20 12t5 38q0 27 -5 38.5t-20 11.5z
M472 496q34 0 48 -20t14 -43q0 -21 -16.5 -35t-35.5 -17q-104 -12 -166 -72q3 8 8.5 20.5t22.5 44.5t34.5 57t42.5 45t48 20zM139 444q26 0 52 -19.5t44 -47t32 -54.5t21 -47l7 -19q-57 72 -156 72q-24 0 -43 15t-19 37q0 26 16.5 44.5t45.5 18.5zM314 593q19 -18 24 -50
t-1.5 -64t-15.5 -62t-17 -49l-9 -18q10 93 -61 161q-17 17 -20.5 40t11.5 41q18 18 41.5 19.5t47.5 -18.5z" />
    <glyph glyph-name="period" unicode="." horiz-adv-x="207" 
d="M104 -9q-22 0 -39 16.5t-17 39.5t17 39.5t39 16.5t38.5 -16t16.5 -40q0 -23 -16.5 -39.5t-38.5 -16.5z" />
    <glyph glyph-name="slash" unicode="/" 
d="M101 197q-6 0 -9 -1v-98q2 -1 9 -1q18 0 24.5 12t6.5 38t-6.5 38t-24.5 12zM253 161v-24h-40v-38h47v-24h-76v145h76v-25h-47v-34h40zM99 73q-23 0 -36 2v143q26 4 37 4q33 0 47 -18t14 -57t-14.5 -56.5t-47.5 -17.5zM286 220h39l19 -80l19 80h40q1 -21 3.5 -78.5
t2.5 -66.5h-29q0 53 -3 104l-20 -82h-27l-20 82h-1q-2 -68 -2 -104h-28q2 84 7 145zM482 73q-29 0 -41 17.5t-12 56.5t12 57t41 18t41.5 -18t12.5 -57t-12.5 -56.5t-41.5 -17.5zM482 197q-14 0 -19 -11.5t-5 -38.5q0 -50 24 -50q15 0 20 12t5 38q0 27 -5 38.5t-20 11.5z
M472 496q34 0 48 -20t14 -43q0 -21 -16.5 -35t-35.5 -17q-104 -12 -166 -72q3 8 8.5 20.5t22.5 44.5t34.5 57t42.5 45t48 20zM139 444q26 0 52 -19.5t44 -47t32 -54.5t21 -47l7 -19q-57 72 -156 72q-24 0 -43 15t-19 37q0 26 16.5 44.5t45.5 18.5zM314 593q19 -18 24 -50
t-1.5 -64t-15.5 -62t-17 -49l-9 -18q10 93 -61 161q-17 17 -20.5 40t11.5 41q18 18 41.5 19.5t47.5 -18.5z" />
    <glyph glyph-name="zero" unicode="0" horiz-adv-x="640" 
d="M320 -13q-129 0 -204 100t-75 263t75 262.5t204 99.5t203.5 -99.5t74.5 -262.5t-74.5 -263t-203.5 -100zM320 68q90 0 141 77.5t51 204.5t-51 204t-141 77t-140.5 -77t-50.5 -204t50.5 -204.5t140.5 -77.5z" />
    <glyph glyph-name="one" unicode="1" horiz-adv-x="337" 
d="M172 0v619h-142v81h229v-700h-87z" />
    <glyph glyph-name="two" unicode="2" horiz-adv-x="620" 
d="M46 0v34l290 284q108 104 108 185q0 53 -44.5 92.5t-110.5 39.5q-50 0 -95 -14.5t-61 -24.5t-43 -29l-33 64q107 81 246 81q107 0 169 -56t62 -141q0 -51 -27 -105t-98 -125l-205 -199l3 -9h339v-77h-500z" />
    <glyph glyph-name="three" unicode="3" horiz-adv-x="600" 
d="M274 -14q-136 0 -250 71l31 68q96 -62 210 -62q71 0 133.5 43t62.5 116q0 69 -49.5 106.5t-141.5 37.5h-120v47l202 205l-4 9h-282v73h439v-24l-250 -250l1 -7h41q116 0 184 -53.5t68 -149.5q0 -102 -85 -165.5t-190 -64.5z" />
    <glyph glyph-name="four" unicode="4" 
d="M101 197q-6 0 -9 -1v-98q2 -1 9 -1q18 0 24.5 12t6.5 38t-6.5 38t-24.5 12zM253 161v-24h-40v-38h47v-24h-76v145h76v-25h-47v-34h40zM99 73q-23 0 -36 2v143q26 4 37 4q33 0 47 -18t14 -57t-14.5 -56.5t-47.5 -17.5zM286 220h39l19 -80l19 80h40q1 -21 3.5 -78.5
t2.5 -66.5h-29q0 53 -3 104l-20 -82h-27l-20 82h-1q-2 -68 -2 -104h-28q2 84 7 145zM482 73q-29 0 -41 17.5t-12 56.5t12 57t41 18t41.5 -18t12.5 -57t-12.5 -56.5t-41.5 -17.5zM482 197q-14 0 -19 -11.5t-5 -38.5q0 -50 24 -50q15 0 20 12t5 38q0 27 -5 38.5t-20 11.5z
M472 496q34 0 48 -20t14 -43q0 -21 -16.5 -35t-35.5 -17q-104 -12 -166 -72q3 8 8.5 20.5t22.5 44.5t34.5 57t42.5 45t48 20zM139 444q26 0 52 -19.5t44 -47t32 -54.5t21 -47l7 -19q-57 72 -156 72q-24 0 -43 15t-19 37q0 26 16.5 44.5t45.5 18.5zM314 593q19 -18 24 -50
t-1.5 -64t-15.5 -62t-17 -49l-9 -18q10 93 -61 161q-17 17 -20.5 40t11.5 41q18 18 41.5 19.5t47.5 -18.5z" />
    <glyph glyph-name="five" unicode="5" horiz-adv-x="600" 
d="M291 -13q-67 0 -134 20t-106 46l20 72q95 -61 203 -61q92 0 141 47.5t49 117.5q0 68 -51 111t-133 43q-106 0 -208 -55v372h435l1 -74h-346v-206q70 36 150 36q112 1 179 -64t67 -166q0 -103 -69.5 -171t-197.5 -68z" />
    <glyph glyph-name="six" unicode="6" horiz-adv-x="630" 
d="M314 -13q-115 0 -191 70.5t-76 176.5q0 83 55 158l214 308h106l-170 -245q42 15 86 15q104 0 174.5 -67t70.5 -169q0 -106 -76 -176.5t-193 -70.5zM315 62q76 0 128 49.5t52 123.5q0 76 -51.5 126t-128.5 50t-129 -50t-52 -125q0 -74 52 -124t129 -50z" />
    <glyph glyph-name="seven" unicode="7" horiz-adv-x="619" 
d="M138 0l292 616l-5 8h-356v76h495v-20l-325 -680h-101z" />
    <glyph glyph-name="eight" unicode="8" horiz-adv-x="636" 
d="M318 -13q-117 0 -192 55t-75 142q0 63 39.5 109t110.5 66v7q-57 17 -90.5 61t-33.5 101q0 81 66 132.5t175 51.5t174.5 -51.5t65.5 -132.5q0 -57 -33.5 -101t-90.5 -61v-7q71 -20 111 -66t40 -109q0 -87 -75 -142t-192 -55zM318 388q67 0 110.5 35t43.5 90t-43.5 90.5
t-110.5 35.5t-110.5 -35.5t-43.5 -90.5t43.5 -90t110.5 -35zM318 64q77 0 126 37t49 95t-49 94.5t-126 36.5q-78 0 -127.5 -36.5t-49.5 -94.5t49.5 -95t127.5 -37z" />
    <glyph glyph-name="nine" unicode="9" horiz-adv-x="630" 
d="M209 -13l169 245q-42 -15 -86 -15q-104 0 -174.5 67t-70.5 170q1 106 76.5 176t192.5 70q115 0 191 -70.5t76 -176.5q0 -84 -55 -157l-214 -309h-105zM315 277q77 0 129 49.5t52 124.5t-52 125t-129 50q-76 0 -127.5 -50t-51.5 -124q0 -76 51 -125.5t128 -49.5z" />
    <glyph glyph-name="colon" unicode=":" horiz-adv-x="204" 
d="M108 232q-22 0 -39 16.5t-17 39.5t17 39.5t39 16.5q23 0 39.5 -16t16.5 -40t-16.5 -40t-39.5 -16zM108 -9q-22 0 -39 16.5t-17 39.5q0 24 17 40.5t39 16.5q23 0 39.5 -16.5t16.5 -40.5q0 -23 -16.5 -39.5t-39.5 -16.5z" />
    <glyph glyph-name="semicolon" unicode=";" horiz-adv-x="204" 
d="M108 232q-22 0 -39 16.5t-17 39.5t17 39.5t39 16.5q23 0 39.5 -16t16.5 -40t-16.5 -40t-39.5 -16zM87 -122l-37 6l40 113q-38 13 -38 51q0 23 17 39t39 16q23 0 39.5 -16t16.5 -40q0 -17 -12 -39z" />
    <glyph glyph-name="less" unicode="&#x3c;" 
d="M101 197q-6 0 -9 -1v-98q2 -1 9 -1q18 0 24.5 12t6.5 38t-6.5 38t-24.5 12zM253 161v-24h-40v-38h47v-24h-76v145h76v-25h-47v-34h40zM99 73q-23 0 -36 2v143q26 4 37 4q33 0 47 -18t14 -57t-14.5 -56.5t-47.5 -17.5zM286 220h39l19 -80l19 80h40q1 -21 3.5 -78.5
t2.5 -66.5h-29q0 53 -3 104l-20 -82h-27l-20 82h-1q-2 -68 -2 -104h-28q2 84 7 145zM482 73q-29 0 -41 17.5t-12 56.5t12 57t41 18t41.5 -18t12.5 -57t-12.5 -56.5t-41.5 -17.5zM482 197q-14 0 -19 -11.5t-5 -38.5q0 -50 24 -50q15 0 20 12t5 38q0 27 -5 38.5t-20 11.5z
M472 496q34 0 48 -20t14 -43q0 -21 -16.5 -35t-35.5 -17q-104 -12 -166 -72q3 8 8.5 20.5t22.5 44.5t34.5 57t42.5 45t48 20zM139 444q26 0 52 -19.5t44 -47t32 -54.5t21 -47l7 -19q-57 72 -156 72q-24 0 -43 15t-19 37q0 26 16.5 44.5t45.5 18.5zM314 593q19 -18 24 -50
t-1.5 -64t-15.5 -62t-17 -49l-9 -18q10 93 -61 161q-17 17 -20.5 40t11.5 41q18 18 41.5 19.5t47.5 -18.5z" />
    <glyph glyph-name="equal" unicode="=" 
d="M101 197q-6 0 -9 -1v-98q2 -1 9 -1q18 0 24.5 12t6.5 38t-6.5 38t-24.5 12zM253 161v-24h-40v-38h47v-24h-76v145h76v-25h-47v-34h40zM99 73q-23 0 -36 2v143q26 4 37 4q33 0 47 -18t14 -57t-14.5 -56.5t-47.5 -17.5zM286 220h39l19 -80l19 80h40q1 -21 3.5 -78.5
t2.5 -66.5h-29q0 53 -3 104l-20 -82h-27l-20 82h-1q-2 -68 -2 -104h-28q2 84 7 145zM482 73q-29 0 -41 17.5t-12 56.5t12 57t41 18t41.5 -18t12.5 -57t-12.5 -56.5t-41.5 -17.5zM482 197q-14 0 -19 -11.5t-5 -38.5q0 -50 24 -50q15 0 20 12t5 38q0 27 -5 38.5t-20 11.5z
M472 496q34 0 48 -20t14 -43q0 -21 -16.5 -35t-35.5 -17q-104 -12 -166 -72q3 8 8.5 20.5t22.5 44.5t34.5 57t42.5 45t48 20zM139 444q26 0 52 -19.5t44 -47t32 -54.5t21 -47l7 -19q-57 72 -156 72q-24 0 -43 15t-19 37q0 26 16.5 44.5t45.5 18.5zM314 593q19 -18 24 -50
t-1.5 -64t-15.5 -62t-17 -49l-9 -18q10 93 -61 161q-17 17 -20.5 40t11.5 41q18 18 41.5 19.5t47.5 -18.5z" />
    <glyph glyph-name="greater" unicode="&#x3e;" 
d="M101 197q-6 0 -9 -1v-98q2 -1 9 -1q18 0 24.5 12t6.5 38t-6.5 38t-24.5 12zM253 161v-24h-40v-38h47v-24h-76v145h76v-25h-47v-34h40zM99 73q-23 0 -36 2v143q26 4 37 4q33 0 47 -18t14 -57t-14.5 -56.5t-47.5 -17.5zM286 220h39l19 -80l19 80h40q1 -21 3.5 -78.5
t2.5 -66.5h-29q0 53 -3 104l-20 -82h-27l-20 82h-1q-2 -68 -2 -104h-28q2 84 7 145zM482 73q-29 0 -41 17.5t-12 56.5t12 57t41 18t41.5 -18t12.5 -57t-12.5 -56.5t-41.5 -17.5zM482 197q-14 0 -19 -11.5t-5 -38.5q0 -50 24 -50q15 0 20 12t5 38q0 27 -5 38.5t-20 11.5z
M472 496q34 0 48 -20t14 -43q0 -21 -16.5 -35t-35.5 -17q-104 -12 -166 -72q3 8 8.5 20.5t22.5 44.5t34.5 57t42.5 45t48 20zM139 444q26 0 52 -19.5t44 -47t32 -54.5t21 -47l7 -19q-57 72 -156 72q-24 0 -43 15t-19 37q0 26 16.5 44.5t45.5 18.5zM314 593q19 -18 24 -50
t-1.5 -64t-15.5 -62t-17 -49l-9 -18q10 93 -61 161q-17 17 -20.5 40t11.5 41q18 18 41.5 19.5t47.5 -18.5z" />
    <glyph glyph-name="question" unicode="?" horiz-adv-x="472" 
d="M172 183v204h34q61 0 99 37.5t38 94.5q0 61 -35 95t-95 34q-50 0 -82.5 -20t-56.5 -66l-34 45q23 50 72 77.5t108 27.5q87 0 143 -52t56 -139q0 -79 -53 -133.5t-133 -56.5v-148h-61zM202 -9q-21 0 -37.5 16t-16.5 38q0 23 16 39t38 16t38 -16t16 -39q0 -22 -16.5 -38
t-37.5 -16z" />
    <glyph glyph-name="at" unicode="@" 
d="M101 197q-6 0 -9 -1v-98q2 -1 9 -1q18 0 24.5 12t6.5 38t-6.5 38t-24.5 12zM253 161v-24h-40v-38h47v-24h-76v145h76v-25h-47v-34h40zM99 73q-23 0 -36 2v143q26 4 37 4q33 0 47 -18t14 -57t-14.5 -56.5t-47.5 -17.5zM286 220h39l19 -80l19 80h40q1 -21 3.5 -78.5
t2.5 -66.5h-29q0 53 -3 104l-20 -82h-27l-20 82h-1q-2 -68 -2 -104h-28q2 84 7 145zM482 73q-29 0 -41 17.5t-12 56.5t12 57t41 18t41.5 -18t12.5 -57t-12.5 -56.5t-41.5 -17.5zM482 197q-14 0 -19 -11.5t-5 -38.5q0 -50 24 -50q15 0 20 12t5 38q0 27 -5 38.5t-20 11.5z
M472 496q34 0 48 -20t14 -43q0 -21 -16.5 -35t-35.5 -17q-104 -12 -166 -72q3 8 8.5 20.5t22.5 44.5t34.5 57t42.5 45t48 20zM139 444q26 0 52 -19.5t44 -47t32 -54.5t21 -47l7 -19q-57 72 -156 72q-24 0 -43 15t-19 37q0 26 16.5 44.5t45.5 18.5zM314 593q19 -18 24 -50
t-1.5 -64t-15.5 -62t-17 -49l-9 -18q10 93 -61 161q-17 17 -20.5 40t11.5 41q18 18 41.5 19.5t47.5 -18.5z" />
    <glyph glyph-name="A" unicode="A" horiz-adv-x="712" 
d="M10 0l325 700h42l325 -700h-93l-54 117h-399l-53 -117h-93zM190 189h332l-163 357h-6z" />
    <glyph glyph-name="B" unicode="B" horiz-adv-x="705" 
d="M74 0v700h326q94 0 153.5 -47.5t59.5 -124.5q0 -52 -28.5 -91.5t-78.5 -60.5v-6q69 -19 109.5 -66.5t40.5 -112.5q0 -85 -68.5 -138t-173.5 -53h-340zM161 393h225q63 0 103 33t40 85q0 53 -40 84.5t-103 31.5h-225v-234zM161 75h240q72 0 117.5 35t45.5 91t-45.5 89.5
t-117.5 33.5h-240v-249z" />
    <glyph glyph-name="C" unicode="C" horiz-adv-x="692" 
d="M439 -13q-175 0 -282.5 100t-107.5 259t107 262.5t277 103.5q114 0 200 -46l-12 -86q-79 53 -186 53q-129 0 -214 -81t-85 -204q0 -126 84.5 -203t221.5 -77q133 0 225 74v-89q-97 -66 -228 -66z" />
    <glyph glyph-name="D" unicode="D" horiz-adv-x="753" 
d="M74 0v700h281q150 0 249 -98.5t99 -250.5t-99 -251.5t-249 -99.5h-281zM161 78h189q115 0 190 76t75 196q0 121 -75 197t-191 76h-188v-545z" />
    <glyph glyph-name="E" unicode="E" horiz-adv-x="661" 
d="M74 0v700h525v-78h-439v-228h371v-76h-371v-240h449v-78h-535z" />
    <glyph glyph-name="F" unicode="F" horiz-adv-x="622" 
d="M74 0v700h516v-78h-429v-242h299v-82h-299v-298h-87z" />
    <glyph glyph-name="G" unicode="G" horiz-adv-x="790" 
d="M404 -13q-152 0 -253.5 100t-101.5 255q0 154 104 262t257 108q171 0 269 -100l-48 -64q-35 37 -92.5 61.5t-124.5 24.5q-118 0 -198 -85t-80 -207q0 -123 77 -199t191 -76q101 0 172.5 70t78.5 179h-235v75h317q4 -28 4 -64q0 -144 -99 -242t-238 -98z" />
    <glyph glyph-name="H" unicode="H" horiz-adv-x="745" 
d="M74 0v700h87v-315h424v315h86v-700h-86v306h-424v-306h-87z" />
    <glyph glyph-name="I" unicode="I" horiz-adv-x="236" 
d="M75 0v700h87v-700h-87z" />
    <glyph glyph-name="J" unicode="J" horiz-adv-x="462" 
d="M134 -12q-61 0 -122 26l5 78q54 -26 111 -26q175 0 175 208v426h86v-433q0 -279 -255 -279z" />
    <glyph glyph-name="K" unicode="K" horiz-adv-x="709" 
d="M74 0v700h87v-378h7l378 378h105l-280 -291l320 -409h-104l-280 347h-9l-137 -132v-215h-87z" />
    <glyph glyph-name="L" unicode="L" horiz-adv-x="626" 
d="M74 0v700h87v-622h431l-1 -78h-517z" />
    <glyph glyph-name="M" unicode="M" horiz-adv-x="876" 
d="M31 0l156 700h33l214 -468h8l214 468h33l155 -700h-89l-106 487h-7l-184 -401h-41l-183 401h-7l-107 -487h-89z" />
    <glyph glyph-name="N" unicode="N" horiz-adv-x="748" 
d="M635 0l-467 513h-8v-513h-86v700h39l467 -513h7v513h86v-700h-38z" />
    <glyph glyph-name="O" unicode="O" horiz-adv-x="810" 
d="M404 -13q-153 0 -254 102.5t-101 259.5t101 260t255 103t254.5 -103t100.5 -259q0 -157 -101 -260t-255 -103zM405 68q118 0 194 79.5t76 201.5t-76.5 202t-194.5 80q-117 0 -193 -80t-76 -202t76 -201.5t194 -79.5z" />
    <glyph glyph-name="P" unicode="P" horiz-adv-x="676" 
d="M74 0v700h323q109 0 178.5 -63t69.5 -162q0 -100 -70 -164.5t-179 -64.5h-235v-246h-87zM161 317h230q73 0 120.5 44.5t47.5 110.5q0 65 -47.5 108t-120.5 43h-230v-306z" />
    <glyph glyph-name="Q" unicode="Q" horiz-adv-x="810" 
d="M744 -104q-53 -15 -124 0.5t-121.5 31t-127.5 -0.5v65q-141 10 -231.5 110t-90.5 248q0 157 101 260t255 103t254.5 -103t100.5 -260q0 -130 -72 -225.5t-190 -124.5v-6q11 -3 42 -11t43 -11t38 -7.5t42 -5t38 1t43 6.5v-71zM405 69q118 0 194 79.5t76 201.5t-76.5 202
t-194.5 80q-117 0 -193 -80t-76 -202t76 -201.5t194 -79.5z" />
    <glyph glyph-name="R" unicode="R" horiz-adv-x="674" 
d="M74 0v700h308q107 0 174 -54.5t67 -146.5q0 -77 -48 -135t-125 -73l182 -291h-94l-168 274h-210v-274h-86zM160 345h209q73 0 119.5 39t46.5 102q0 62 -46 99.5t-120 37.5h-209v-278z" />
    <glyph glyph-name="S" unicode="S" horiz-adv-x="638" 
d="M329 -13q-70 0 -155.5 21.5t-140.5 55.5l24 72q58 -37 131 -57t139 -20q78 0 128 35t50 90q0 50 -41.5 80t-149.5 52q-128 26 -189 73t-61 129q0 84 71 139t188 55q122 0 226 -47v-78q-100 52 -221 52q-78 0 -126 -34.5t-48 -84.5q0 -49 42 -78t146 -51q134 -28 193 -75
t59 -126q0 -90 -71 -146.5t-194 -56.5z" />
    <glyph glyph-name="T" unicode="T" horiz-adv-x="630" 
d="M271 0v622h-243v78h574v-78h-243v-622h-88z" />
    <glyph glyph-name="U" unicode="U" horiz-adv-x="757" 
d="M378 -13q-136 0 -220.5 78t-84.5 213v422h88v-419q0 -101 60 -158t157 -57q98 0 158 56.5t60 157.5v420h87v-421q0 -137 -84.5 -214.5t-220.5 -77.5z" />
    <glyph glyph-name="V" unicode="V" horiz-adv-x="711" 
d="M336 0l-326 700h92l250 -545h6l250 545h93l-327 -700h-38z" />
    <glyph glyph-name="W" unicode="W" horiz-adv-x="1010" 
d="M258 0l-245 700h93l179 -512h7l189 512h47l190 -512h8l178 512h93l-245 -700h-47l-196 514h-8l-197 -514h-46z" />
    <glyph glyph-name="X" unicode="X" horiz-adv-x="698" 
d="M13 0l277 357l-266 343h100l222 -282h6l223 282h98l-265 -342l276 -358h-99l-233 297h-8l-231 -297h-100z" />
    <glyph glyph-name="Y" unicode="Y" horiz-adv-x="689" 
d="M300 0v281l-290 419h97l234 -334h7l236 334h96l-292 -419v-281h-88z" />
    <glyph glyph-name="Z" unicode="Z" horiz-adv-x="647" 
d="M39 0v38l422 578l-4 6h-404v78h544v-40l-423 -577l3 -5h430v-78h-568z" />
    <glyph glyph-name="bracketleft" unicode="[" 
d="M101 197q-6 0 -9 -1v-98q2 -1 9 -1q18 0 24.5 12t6.5 38t-6.5 38t-24.5 12zM253 161v-24h-40v-38h47v-24h-76v145h76v-25h-47v-34h40zM99 73q-23 0 -36 2v143q26 4 37 4q33 0 47 -18t14 -57t-14.5 -56.5t-47.5 -17.5zM286 220h39l19 -80l19 80h40q1 -21 3.5 -78.5
t2.5 -66.5h-29q0 53 -3 104l-20 -82h-27l-20 82h-1q-2 -68 -2 -104h-28q2 84 7 145zM482 73q-29 0 -41 17.5t-12 56.5t12 57t41 18t41.5 -18t12.5 -57t-12.5 -56.5t-41.5 -17.5zM482 197q-14 0 -19 -11.5t-5 -38.5q0 -50 24 -50q15 0 20 12t5 38q0 27 -5 38.5t-20 11.5z
M472 496q34 0 48 -20t14 -43q0 -21 -16.5 -35t-35.5 -17q-104 -12 -166 -72q3 8 8.5 20.5t22.5 44.5t34.5 57t42.5 45t48 20zM139 444q26 0 52 -19.5t44 -47t32 -54.5t21 -47l7 -19q-57 72 -156 72q-24 0 -43 15t-19 37q0 26 16.5 44.5t45.5 18.5zM314 593q19 -18 24 -50
t-1.5 -64t-15.5 -62t-17 -49l-9 -18q10 93 -61 161q-17 17 -20.5 40t11.5 41q18 18 41.5 19.5t47.5 -18.5z" />
    <glyph glyph-name="backslash" unicode="\" 
d="M101 197q-6 0 -9 -1v-98q2 -1 9 -1q18 0 24.5 12t6.5 38t-6.5 38t-24.5 12zM253 161v-24h-40v-38h47v-24h-76v145h76v-25h-47v-34h40zM99 73q-23 0 -36 2v143q26 4 37 4q33 0 47 -18t14 -57t-14.5 -56.5t-47.5 -17.5zM286 220h39l19 -80l19 80h40q1 -21 3.5 -78.5
t2.5 -66.5h-29q0 53 -3 104l-20 -82h-27l-20 82h-1q-2 -68 -2 -104h-28q2 84 7 145zM482 73q-29 0 -41 17.5t-12 56.5t12 57t41 18t41.5 -18t12.5 -57t-12.5 -56.5t-41.5 -17.5zM482 197q-14 0 -19 -11.5t-5 -38.5q0 -50 24 -50q15 0 20 12t5 38q0 27 -5 38.5t-20 11.5z
M472 496q34 0 48 -20t14 -43q0 -21 -16.5 -35t-35.5 -17q-104 -12 -166 -72q3 8 8.5 20.5t22.5 44.5t34.5 57t42.5 45t48 20zM139 444q26 0 52 -19.5t44 -47t32 -54.5t21 -47l7 -19q-57 72 -156 72q-24 0 -43 15t-19 37q0 26 16.5 44.5t45.5 18.5zM314 593q19 -18 24 -50
t-1.5 -64t-15.5 -62t-17 -49l-9 -18q10 93 -61 161q-17 17 -20.5 40t11.5 41q18 18 41.5 19.5t47.5 -18.5z" />
    <glyph glyph-name="bracketright" unicode="]" 
d="M101 197q-6 0 -9 -1v-98q2 -1 9 -1q18 0 24.5 12t6.5 38t-6.5 38t-24.5 12zM253 161v-24h-40v-38h47v-24h-76v145h76v-25h-47v-34h40zM99 73q-23 0 -36 2v143q26 4 37 4q33 0 47 -18t14 -57t-14.5 -56.5t-47.5 -17.5zM286 220h39l19 -80l19 80h40q1 -21 3.5 -78.5
t2.5 -66.5h-29q0 53 -3 104l-20 -82h-27l-20 82h-1q-2 -68 -2 -104h-28q2 84 7 145zM482 73q-29 0 -41 17.5t-12 56.5t12 57t41 18t41.5 -18t12.5 -57t-12.5 -56.5t-41.5 -17.5zM482 197q-14 0 -19 -11.5t-5 -38.5q0 -50 24 -50q15 0 20 12t5 38q0 27 -5 38.5t-20 11.5z
M472 496q34 0 48 -20t14 -43q0 -21 -16.5 -35t-35.5 -17q-104 -12 -166 -72q3 8 8.5 20.5t22.5 44.5t34.5 57t42.5 45t48 20zM139 444q26 0 52 -19.5t44 -47t32 -54.5t21 -47l7 -19q-57 72 -156 72q-24 0 -43 15t-19 37q0 26 16.5 44.5t45.5 18.5zM314 593q19 -18 24 -50
t-1.5 -64t-15.5 -62t-17 -49l-9 -18q10 93 -61 161q-17 17 -20.5 40t11.5 41q18 18 41.5 19.5t47.5 -18.5z" />
    <glyph glyph-name="asciicircum" unicode="^" 
d="M101 197q-6 0 -9 -1v-98q2 -1 9 -1q18 0 24.5 12t6.5 38t-6.5 38t-24.5 12zM253 161v-24h-40v-38h47v-24h-76v145h76v-25h-47v-34h40zM99 73q-23 0 -36 2v143q26 4 37 4q33 0 47 -18t14 -57t-14.5 -56.5t-47.5 -17.5zM286 220h39l19 -80l19 80h40q1 -21 3.5 -78.5
t2.5 -66.5h-29q0 53 -3 104l-20 -82h-27l-20 82h-1q-2 -68 -2 -104h-28q2 84 7 145zM482 73q-29 0 -41 17.5t-12 56.5t12 57t41 18t41.5 -18t12.5 -57t-12.5 -56.5t-41.5 -17.5zM482 197q-14 0 -19 -11.5t-5 -38.5q0 -50 24 -50q15 0 20 12t5 38q0 27 -5 38.5t-20 11.5z
M472 496q34 0 48 -20t14 -43q0 -21 -16.5 -35t-35.5 -17q-104 -12 -166 -72q3 8 8.5 20.5t22.5 44.5t34.5 57t42.5 45t48 20zM139 444q26 0 52 -19.5t44 -47t32 -54.5t21 -47l7 -19q-57 72 -156 72q-24 0 -43 15t-19 37q0 26 16.5 44.5t45.5 18.5zM314 593q19 -18 24 -50
t-1.5 -64t-15.5 -62t-17 -49l-9 -18q10 93 -61 161q-17 17 -20.5 40t11.5 41q18 18 41.5 19.5t47.5 -18.5z" />
    <glyph glyph-name="underscore" unicode="_" 
d="M101 197q-6 0 -9 -1v-98q2 -1 9 -1q18 0 24.5 12t6.5 38t-6.5 38t-24.5 12zM253 161v-24h-40v-38h47v-24h-76v145h76v-25h-47v-34h40zM99 73q-23 0 -36 2v143q26 4 37 4q33 0 47 -18t14 -57t-14.5 -56.5t-47.5 -17.5zM286 220h39l19 -80l19 80h40q1 -21 3.5 -78.5
t2.5 -66.5h-29q0 53 -3 104l-20 -82h-27l-20 82h-1q-2 -68 -2 -104h-28q2 84 7 145zM482 73q-29 0 -41 17.5t-12 56.5t12 57t41 18t41.5 -18t12.5 -57t-12.5 -56.5t-41.5 -17.5zM482 197q-14 0 -19 -11.5t-5 -38.5q0 -50 24 -50q15 0 20 12t5 38q0 27 -5 38.5t-20 11.5z
M472 496q34 0 48 -20t14 -43q0 -21 -16.5 -35t-35.5 -17q-104 -12 -166 -72q3 8 8.5 20.5t22.5 44.5t34.5 57t42.5 45t48 20zM139 444q26 0 52 -19.5t44 -47t32 -54.5t21 -47l7 -19q-57 72 -156 72q-24 0 -43 15t-19 37q0 26 16.5 44.5t45.5 18.5zM314 593q19 -18 24 -50
t-1.5 -64t-15.5 -62t-17 -49l-9 -18q10 93 -61 161q-17 17 -20.5 40t11.5 41q18 18 41.5 19.5t47.5 -18.5z" />
    <glyph glyph-name="grave" unicode="`" 
d="M101 197q-6 0 -9 -1v-98q2 -1 9 -1q18 0 24.5 12t6.5 38t-6.5 38t-24.5 12zM253 161v-24h-40v-38h47v-24h-76v145h76v-25h-47v-34h40zM99 73q-23 0 -36 2v143q26 4 37 4q33 0 47 -18t14 -57t-14.5 -56.5t-47.5 -17.5zM286 220h39l19 -80l19 80h40q1 -21 3.5 -78.5
t2.5 -66.5h-29q0 53 -3 104l-20 -82h-27l-20 82h-1q-2 -68 -2 -104h-28q2 84 7 145zM482 73q-29 0 -41 17.5t-12 56.5t12 57t41 18t41.5 -18t12.5 -57t-12.5 -56.5t-41.5 -17.5zM482 197q-14 0 -19 -11.5t-5 -38.5q0 -50 24 -50q15 0 20 12t5 38q0 27 -5 38.5t-20 11.5z
M472 496q34 0 48 -20t14 -43q0 -21 -16.5 -35t-35.5 -17q-104 -12 -166 -72q3 8 8.5 20.5t22.5 44.5t34.5 57t42.5 45t48 20zM139 444q26 0 52 -19.5t44 -47t32 -54.5t21 -47l7 -19q-57 72 -156 72q-24 0 -43 15t-19 37q0 26 16.5 44.5t45.5 18.5zM314 593q19 -18 24 -50
t-1.5 -64t-15.5 -62t-17 -49l-9 -18q10 93 -61 161q-17 17 -20.5 40t11.5 41q18 18 41.5 19.5t47.5 -18.5z" />
    <glyph glyph-name="a" unicode="a" horiz-adv-x="696" 
d="M320 -13q-118 0 -196.5 78.5t-78.5 201.5q0 121 78.5 200t194.5 79q75 0 137.5 -31t100.5 -86h7l12 105h52v-534h-84v82h-7q-81 -95 -216 -95zM339 65q87 0 146.5 57.5t59.5 145.5t-59 145t-147 57q-87 0 -147 -57t-60 -145t59.5 -145.5t147.5 -57.5z" />
    <glyph glyph-name="b" unicode="b" horiz-adv-x="699" 
d="M375 -13q-133 0 -214 96h-8v-84h-84v780h84v-328h8q81 95 214 95q120 0 200 -78.5t80 -199.5t-80.5 -201t-199.5 -80zM363 63q88 0 148 58t60 147q0 88 -60 146t-148 58t-148 -57.5t-60 -146.5t60 -147t148 -58z" />
    <glyph glyph-name="c" unicode="c" horiz-adv-x="582" 
d="M351 -13q-132 0 -220 79t-88 202q0 120 83 199t207 79q132 0 204 -78l-33 -60q-64 67 -165 67q-89 0 -149.5 -58.5t-60.5 -148.5q0 -92 65 -150.5t163 -58.5q100 0 196 71v-80q-87 -63 -202 -63z" />
    <glyph glyph-name="d" unicode="d" horiz-adv-x="698" 
d="M324 -13q-119 0 -199.5 80t-80.5 201t80 199.5t200 78.5q133 0 214 -95h8v328h84v-780h-84v84h-8q-81 -96 -214 -96zM336 63q88 0 148 58t60 147t-60 146.5t-148 57.5t-148 -58t-60 -146q0 -89 60 -147t148 -58z" />
    <glyph glyph-name="e" unicode="e" horiz-adv-x="650" 
d="M339 -13q-136 0 -216 79.5t-80 201.5q0 120 81.5 199t201.5 79q119 0 199.5 -79t80.5 -198l-1 -39h-482q8 -83 66 -129.5t154 -46.5q123 0 201 79l27 -61q-85 -85 -232 -85zM122 290h408q-4 82 -62 135.5t-141 53.5q-82 0 -140 -52.5t-65 -136.5z" />
    <glyph glyph-name="f" unicode="f" horiz-adv-x="467" 
d="M142 -1v466h-128v69h128v68q0 192 194 192q49 0 112 -19l-7 -73q-40 20 -96 20q-61 0 -90 -31t-29 -96v-61h229v-69h-229v-466h-84z" />
    <glyph glyph-name="g" unicode="g" horiz-adv-x="673" 
d="M309 -236q-60 0 -126.5 12t-110.5 34l20 75q87 -45 212 -45q105 0 171.5 54t66.5 157v31h-7q-81 -95 -216 -95q-118 0 -196.5 78.5t-78.5 201.5q0 121 78.5 200t194.5 79q75 0 137.5 -31t100.5 -86h7l12 105h52v-498q0 -128 -88.5 -200t-228.5 -72zM338 65
q87 0 146.5 57.5t59.5 145.5t-59 145t-147 57q-87 0 -147 -57t-60 -145t59.5 -145.5t147.5 -57.5z" />
    <glyph glyph-name="h" unicode="h" horiz-adv-x="659" 
d="M69 0v779h84v-322h5q70 89 191 89q104 0 173 -68t69 -174v-304h-84v284q0 83 -51 135.5t-126 52.5t-126 -52.5t-51 -134.5v-285h-84z" />
    <glyph glyph-name="i" unicode="i" horiz-adv-x="212" 
d="M106 650q-21 0 -36 15t-15 35q0 21 15 35.5t36 14.5q22 0 36.5 -14.5t14.5 -35.5q0 -20 -14.5 -35t-36.5 -15zM64 0v534h85v-534h-85z" />
    <glyph glyph-name="j" unicode="j" horiz-adv-x="224" 
d="M119 650q-21 0 -36 15t-15 35q0 21 14.5 35.5t36.5 14.5t36.5 -14.5t14.5 -35.5q0 -20 -15 -35t-36 -15zM-28 -236q-38 0 -70 8l3 73q24 -6 58 -6q60 0 87 30t27 95v570h84v-576q0 -194 -189 -194z" />
    <glyph glyph-name="k" unicode="k" horiz-adv-x="553" 
d="M69 0v779h84v-510h6l255 265h98l-213 -223l245 -311h-97l-202 253h-7l-85 -88v-165h-84z" />
    <glyph glyph-name="l" unicode="l" horiz-adv-x="223" 
d="M69 0v779h84v-779h-84z" />
    <glyph glyph-name="m" unicode="m" horiz-adv-x="966" 
d="M69 0v534h54l8 -82h6q28 44 76 69t104 25q59 0 108 -25t75 -69h8q28 43 78 68.5t106 25.5q89 0 147.5 -61.5t58.5 -157.5v-327h-84v319q0 68 -41 111t-103 43q-61 0 -102 -42.5t-42 -110.5v-320h-84v319q0 70 -38.5 112t-104.5 42q-60 0 -101.5 -41t-44.5 -106v-326h-84z
" />
    <glyph glyph-name="n" unicode="n" horiz-adv-x="659" 
d="M69 0v534h54l9 -82h5q34 44 87.5 69t115.5 25q108 0 179.5 -69t71.5 -180v-297h-84v285q0 83 -51 135.5t-126 52.5t-126 -53t-51 -137v-283h-84z" />
    <glyph glyph-name="o" unicode="o" horiz-adv-x="659" 
d="M330 -13q-124 0 -205.5 79t-81.5 201q0 121 82 200t205 79t204.5 -79t81.5 -199q0 -122 -81.5 -201.5t-204.5 -79.5zM330 57q87 0 146.5 59.5t59.5 150.5t-59.5 150t-146.5 59q-88 0 -147.5 -59t-59.5 -150t59.5 -150.5t147.5 -59.5z" />
    <glyph glyph-name="p" unicode="p" horiz-adv-x="692" 
d="M69 -221v755h52l12 -105h7q38 55 100.5 86t137.5 31q116 0 194.5 -79t78.5 -200q0 -123 -78.5 -201.5t-196.5 -78.5q-135 0 -216 95h-7v-303h-84zM357 65q88 0 147.5 57.5t59.5 145.5t-60 145t-147 57q-88 0 -147 -57t-59 -145t59.5 -145.5t146.5 -57.5z" />
    <glyph glyph-name="q" unicode="q" horiz-adv-x="692" 
d="M539 -221v303h-7q-81 -95 -216 -95q-118 0 -196.5 78.5t-78.5 201.5q0 121 78.5 200t194.5 79q75 0 137.5 -31t100.5 -86h7l12 105h52v-755h-84zM335 65q87 0 146.5 57.5t59.5 145.5t-59 145t-147 57q-87 0 -147 -57t-60 -145t59.5 -145.5t147.5 -57.5z" />
    <glyph glyph-name="r" unicode="r" horiz-adv-x="416" 
d="M69 0v534h54l8 -85h6q29 45 79.5 71t111.5 26q37 0 70 -9l-5 -74q-28 12 -61 12q-81 0 -129 -53t-50 -143v-279h-84z" />
    <glyph glyph-name="s" unicode="s" horiz-adv-x="496" 
d="M260 -13q-130 0 -231 67l23 64q86 -67 194 -67q58 0 91 23.5t33 61.5q0 42 -29.5 67t-107.5 40q-177 37 -177 160q0 60 54.5 101.5t143.5 41.5q88 0 164 -30v-64q-72 32 -151 32q-56 0 -91.5 -23.5t-35.5 -58.5q0 -37 29 -62t106 -41q95 -19 137 -58.5t42 -104.5
t-52.5 -107t-141.5 -42z" />
    <glyph glyph-name="t" unicode="t" horiz-adv-x="465" 
d="M329 -13q-191 0 -191 189v292h-128v40l187 149h25v-123h221v-68h-221v-272q0 -132 116 -132q24 0 46.5 4.5t34 8.5t15.5 7l7 -75q-2 0 -13.5 -3.5t-24.5 -7t-33.5 -6.5t-40.5 -3z" />
    <glyph glyph-name="u" unicode="u" horiz-adv-x="658" 
d="M310 -12q-104 0 -173 68t-69 174v304h84v-284q0 -83 51 -135.5t126 -52.5t126.5 53t51.5 134v285h84v-534h-84v77h-5q-70 -89 -192 -89z" />
    <glyph glyph-name="v" unicode="v" horiz-adv-x="530" 
d="M246 -15l-245 549h87l174 -409h7l173 409h87l-244 -549h-39z" />
    <glyph glyph-name="w" unicode="w" horiz-adv-x="801" 
d="M200 -15l-191 549h91l130 -373h7l146 385h36l146 -385h6l131 373h90l-190 -549h-42l-156 398h-7l-156 -398h-41z" />
    <glyph glyph-name="x" unicode="x" horiz-adv-x="537" 
d="M10 0l202 274l-193 260h92l154 -205h6l155 205h91l-193 -261l203 -273h-92l-164 217h-6l-163 -217h-92z" />
    <glyph glyph-name="y" unicode="y" horiz-adv-x="663" 
d="M279 -236q-99 0 -205 39l18 75q87 -38 182 -38q104 0 170.5 53t66.5 156v28h-5q-70 -89 -192 -89q-104 0 -173 68t-69 174v304h84v-284q0 -83 51 -135.5t126 -52.5t126.5 53t51.5 134v285h84v-499q0 -128 -88 -199.5t-228 -71.5z" />
    <glyph glyph-name="z" unicode="z" horiz-adv-x="580" 
d="M43 0v40l347 421l-2 5h-317v68h441v-40l-345 -421l2 -5h367v-68h-493z" />
    <glyph glyph-name="braceleft" unicode="{" 
d="M101 197q-6 0 -9 -1v-98q2 -1 9 -1q18 0 24.5 12t6.5 38t-6.5 38t-24.5 12zM253 161v-24h-40v-38h47v-24h-76v145h76v-25h-47v-34h40zM99 73q-23 0 -36 2v143q26 4 37 4q33 0 47 -18t14 -57t-14.5 -56.5t-47.5 -17.5zM286 220h39l19 -80l19 80h40q1 -21 3.5 -78.5
t2.5 -66.5h-29q0 53 -3 104l-20 -82h-27l-20 82h-1q-2 -68 -2 -104h-28q2 84 7 145zM482 73q-29 0 -41 17.5t-12 56.5t12 57t41 18t41.5 -18t12.5 -57t-12.5 -56.5t-41.5 -17.5zM482 197q-14 0 -19 -11.5t-5 -38.5q0 -50 24 -50q15 0 20 12t5 38q0 27 -5 38.5t-20 11.5z
M472 496q34 0 48 -20t14 -43q0 -21 -16.5 -35t-35.5 -17q-104 -12 -166 -72q3 8 8.5 20.5t22.5 44.5t34.5 57t42.5 45t48 20zM139 444q26 0 52 -19.5t44 -47t32 -54.5t21 -47l7 -19q-57 72 -156 72q-24 0 -43 15t-19 37q0 26 16.5 44.5t45.5 18.5zM314 593q19 -18 24 -50
t-1.5 -64t-15.5 -62t-17 -49l-9 -18q10 93 -61 161q-17 17 -20.5 40t11.5 41q18 18 41.5 19.5t47.5 -18.5z" />
    <glyph glyph-name="bar" unicode="|" 
d="M101 197q-6 0 -9 -1v-98q2 -1 9 -1q18 0 24.5 12t6.5 38t-6.5 38t-24.5 12zM253 161v-24h-40v-38h47v-24h-76v145h76v-25h-47v-34h40zM99 73q-23 0 -36 2v143q26 4 37 4q33 0 47 -18t14 -57t-14.5 -56.5t-47.5 -17.5zM286 220h39l19 -80l19 80h40q1 -21 3.5 -78.5
t2.5 -66.5h-29q0 53 -3 104l-20 -82h-27l-20 82h-1q-2 -68 -2 -104h-28q2 84 7 145zM482 73q-29 0 -41 17.5t-12 56.5t12 57t41 18t41.5 -18t12.5 -57t-12.5 -56.5t-41.5 -17.5zM482 197q-14 0 -19 -11.5t-5 -38.5q0 -50 24 -50q15 0 20 12t5 38q0 27 -5 38.5t-20 11.5z
M472 496q34 0 48 -20t14 -43q0 -21 -16.5 -35t-35.5 -17q-104 -12 -166 -72q3 8 8.5 20.5t22.5 44.5t34.5 57t42.5 45t48 20zM139 444q26 0 52 -19.5t44 -47t32 -54.5t21 -47l7 -19q-57 72 -156 72q-24 0 -43 15t-19 37q0 26 16.5 44.5t45.5 18.5zM314 593q19 -18 24 -50
t-1.5 -64t-15.5 -62t-17 -49l-9 -18q10 93 -61 161q-17 17 -20.5 40t11.5 41q18 18 41.5 19.5t47.5 -18.5z" />
    <glyph glyph-name="braceright" unicode="}" 
d="M101 197q-6 0 -9 -1v-98q2 -1 9 -1q18 0 24.5 12t6.5 38t-6.5 38t-24.5 12zM253 161v-24h-40v-38h47v-24h-76v145h76v-25h-47v-34h40zM99 73q-23 0 -36 2v143q26 4 37 4q33 0 47 -18t14 -57t-14.5 -56.5t-47.5 -17.5zM286 220h39l19 -80l19 80h40q1 -21 3.5 -78.5
t2.5 -66.5h-29q0 53 -3 104l-20 -82h-27l-20 82h-1q-2 -68 -2 -104h-28q2 84 7 145zM482 73q-29 0 -41 17.5t-12 56.5t12 57t41 18t41.5 -18t12.5 -57t-12.5 -56.5t-41.5 -17.5zM482 197q-14 0 -19 -11.5t-5 -38.5q0 -50 24 -50q15 0 20 12t5 38q0 27 -5 38.5t-20 11.5z
M472 496q34 0 48 -20t14 -43q0 -21 -16.5 -35t-35.5 -17q-104 -12 -166 -72q3 8 8.5 20.5t22.5 44.5t34.5 57t42.5 45t48 20zM139 444q26 0 52 -19.5t44 -47t32 -54.5t21 -47l7 -19q-57 72 -156 72q-24 0 -43 15t-19 37q0 26 16.5 44.5t45.5 18.5zM314 593q19 -18 24 -50
t-1.5 -64t-15.5 -62t-17 -49l-9 -18q10 93 -61 161q-17 17 -20.5 40t11.5 41q18 18 41.5 19.5t47.5 -18.5z" />
    <glyph glyph-name="asciitilde" unicode="~" 
d="M101 197q-6 0 -9 -1v-98q2 -1 9 -1q18 0 24.5 12t6.5 38t-6.5 38t-24.5 12zM253 161v-24h-40v-38h47v-24h-76v145h76v-25h-47v-34h40zM99 73q-23 0 -36 2v143q26 4 37 4q33 0 47 -18t14 -57t-14.5 -56.5t-47.5 -17.5zM286 220h39l19 -80l19 80h40q1 -21 3.5 -78.5
t2.5 -66.5h-29q0 53 -3 104l-20 -82h-27l-20 82h-1q-2 -68 -2 -104h-28q2 84 7 145zM482 73q-29 0 -41 17.5t-12 56.5t12 57t41 18t41.5 -18t12.5 -57t-12.5 -56.5t-41.5 -17.5zM482 197q-14 0 -19 -11.5t-5 -38.5q0 -50 24 -50q15 0 20 12t5 38q0 27 -5 38.5t-20 11.5z
M472 496q34 0 48 -20t14 -43q0 -21 -16.5 -35t-35.5 -17q-104 -12 -166 -72q3 8 8.5 20.5t22.5 44.5t34.5 57t42.5 45t48 20zM139 444q26 0 52 -19.5t44 -47t32 -54.5t21 -47l7 -19q-57 72 -156 72q-24 0 -43 15t-19 37q0 26 16.5 44.5t45.5 18.5zM314 593q19 -18 24 -50
t-1.5 -64t-15.5 -62t-17 -49l-9 -18q10 93 -61 161q-17 17 -20.5 40t11.5 41q18 18 41.5 19.5t47.5 -18.5z" />
    </font>
</defs>
</svg>
